<svg width="32" height="32" viewBox="0 0 32 32" fill="none" xmlns="http://www.w3.org/2000/svg">
<path d="M16 0C7.16076 0 0 7.16179 0 16C0 24.8381 7.16179 31.9999 16 31.9999C24.8392 31.9999 31.9999 24.8381 31.9999 16C31.9999 7.16179 24.8381 0 16 0ZM23.8585 10.9615L21.2325 23.3362C21.0384 24.2136 20.5161 24.4263 19.7873 24.0134L15.7873 21.0652L13.858 22.9233C13.6454 23.1359 13.4647 23.3166 13.0518 23.3166L13.3357 19.2454L20.7483 12.5481C21.0714 12.2642 20.6771 12.1032 20.2508 12.3871L11.0895 18.1543L7.14114 16.9218C6.28334 16.6513 6.26373 16.064 7.32179 15.6511L22.7478 9.70217C23.4642 9.4441 24.0897 9.87662 23.8575 10.9605L23.8585 10.9615Z" fill="white"/>
</svg>
