<svg width="32" height="32" viewBox="0 0 32 32" fill="none" xmlns="http://www.w3.org/2000/svg">
<path d="M16 32C24.8366 32 32 24.8366 32 16C32 7.16344 24.8366 0 16 0C7.16344 0 0 7.16344 0 16C0 24.8366 7.16344 32 16 32Z" fill="white"/>
<path fill-rule="evenodd" clip-rule="evenodd" d="M7.24251 15.8311C11.9068 13.799 15.0171 12.4592 16.5734 11.8119C21.0167 9.96378 21.94 9.64273 22.5418 9.63213C22.6742 9.6298 22.9701 9.6626 23.1618 9.81815C23.3237 9.9495 23.3682 10.1269 23.3895 10.2515C23.4108 10.376 23.4374 10.6597 23.4163 10.8813C23.1755 13.4113 22.1336 19.5509 21.6036 22.3845C21.3793 23.5835 20.9376 23.9855 20.5101 24.0249C19.5809 24.1104 18.8754 23.4108 17.9755 22.8209C16.5673 21.8978 15.7717 21.3232 14.4048 20.4224C12.8251 19.3814 13.8492 18.8093 14.7494 17.8742C14.985 17.6295 19.0789 13.9058 19.1581 13.568C19.168 13.5258 19.1772 13.3683 19.0837 13.2852C18.9901 13.202 18.852 13.2304 18.7524 13.253C18.6112 13.2851 16.3615 14.772 12.0035 17.7138C11.365 18.1523 10.7866 18.3659 10.2684 18.3547C9.69709 18.3424 8.59817 18.0317 7.78124 17.7662C6.77923 17.4405 5.98286 17.2683 6.05221 16.7151C6.08833 16.427 6.4851 16.1323 7.24251 15.8311Z" fill="black"/>
</svg>
